<?xml version="1.0" encoding="UTF-8" standalone="no"?>
<!-- Created with Inkscape (http://www.inkscape.org/) -->
<svg
   xmlns:dc="http://purl.org/dc/elements/1.1/"
   xmlns:cc="http://web.resource.org/cc/"
   xmlns:rdf="http://www.w3.org/1999/02/22-rdf-syntax-ns#"
   xmlns:svg="http://www.w3.org/2000/svg"
   xmlns="http://www.w3.org/2000/svg"
   xmlns:sodipodi="http://sodipodi.sourceforge.net/DTD/sodipodi-0.dtd"
   xmlns:inkscape="http://www.inkscape.org/namespaces/inkscape"
   width="744.09448819"
   height="1052.3622047"
   id="svg2"
   sodipodi:version="0.32"
   inkscape:version="0.44"
   sodipodi:docbase="/home/jmandel/Physiology"
   sodipodi:docname="02.01.2007 L1 - cardiovascular intro figures.svg">
  <defs
     id="defs4" />
  <sodipodi:namedview
     id="base"
     pagecolor="#ffffff"
     bordercolor="#666666"
     borderopacity="1.0"
     gridtolerance="10000"
     guidetolerance="10"
     objecttolerance="10"
     inkscape:pageopacity="0.0"
     inkscape:pageshadow="2"
     inkscape:zoom="0.35"
     inkscape:cx="832.14286"
     inkscape:cy="410"
     inkscape:document-units="px"
     inkscape:current-layer="layer1"
     inkscape:window-width="1024"
     inkscape:window-height="733"
     inkscape:window-x="0"
     inkscape:window-y="6" />
  <metadata
     id="metadata7">
    <rdf:RDF>
      <cc:Work
         rdf:about="">
        <dc:format>image/svg+xml</dc:format>
        <dc:type
           rdf:resource="http://purl.org/dc/dcmitype/StillImage" />
      </cc:Work>
    </rdf:RDF>
  </metadata>
  <g
     inkscape:label="Layer 1"
     inkscape:groupmode="layer"
     id="layer1">
    <g
       id="g1952"
       transform="translate(-151.4286,-228.5714)">
      <rect
         y="345.14838"
         x="184.76329"
         height="13.388991"
         width="126.07967"
         id="rect1874"
         style="fill:blue;fill-rule:evenodd;stroke:black;stroke-width:0.39051226px;stroke-linecap:butt;stroke-linejoin:miter;stroke-opacity:1" />
      <path
         id="path1876"
         d="M 308.61146,258.11992 C 309.22286,264.93367 310.84296,280.19403 310.84296,290.47665 C 310.84296,301.26223 310.84296,312.04781 310.84296,322.83339 C 310.84296,332.33389 311.91144,343.10594 309.72721,351.84287 C 308.31888,357.47617 312.58872,373.33067 314.19021,379.7366 C 315.96844,386.84952 314.78249,398.56673 313.07446,405.39884 C 311.08381,413.3614 313.98013,418.12491 319.76896,421.01933 C 330.94985,426.60977 343.53447,429.1922 355.47293,432.17682 C 365.33338,434.64193 374.08441,435.52407 384.48242,435.52407 C 394.73908,435.52407 401.195,429.40519 407.91315,424.36658 C 413.73947,419.99683 416.41708,411.55012 417.9549,405.39884 C 420.58166,394.89178 420.18639,379.38148 420.18639,368.57911 C 420.18639,357.12845 420.18639,346.57576 420.18639,335.10663 C 420.18639,320.7712 422.35659,304.11087 425.76514,290.47665 C 428.52315,279.44464 430.09209,290.20455 424.64939,279.31916 C 421.67497,273.37031 421.30215,267.00917 421.30215,260.35142 C 421.30215,254.9303 417.3184,251.42543 411.2604,251.42543 C 405.53505,251.42543 403.40013,271.75903 402.33441,277.08766 C 400.81509,284.68424 400.8206,292.06886 398.98716,299.40265 C 397.21978,306.47217 397.87141,314.24375 397.87141,321.71763 C 397.87141,331.75938 397.87141,341.80112 397.87141,351.84287 C 397.87141,359.80241 397.90174,365.17119 394.52416,371.92635 C 390.65827,379.65813 389.80065,385.57586 383.36667,392.00984 C 378.40602,396.97049 374.70554,400.03281 366.63043,402.05159 C 360.96293,403.46846 353.73633,401.05956 348.77844,399.82009 C 341.84132,398.08581 339.85244,393.63834 339.85244,385.31535 C 339.85244,375.26188 336.50519,364.67727 336.50519,354.07437 C 336.50519,341.22363 335.38945,328.95518 335.38945,316.13889 C 335.38945,307.30577 335.2154,299.82221 333.15795,291.5924 C 331.01947,283.03848 330.7182,274.02317 328.69495,265.93017 C 326.85612,258.57487 329.01888,253.18003 322.00045,251.42543 C 315.6703,249.84289 310.63129,253.07035 308.61146,258.11992 z "
         style="fill:none;fill-rule:evenodd;stroke:black;stroke-width:0.39051226px;stroke-linecap:butt;stroke-linejoin:miter;stroke-opacity:1" />
      <path
         id="path1878"
         d="M 313.07446,337.33812 C 307.97181,336.06246 323.99054,337.21742 328.69495,339.56962 C 332.73624,341.59027 332.43775,340.28982 335.38945,337.33812"
         style="fill:none;fill-rule:evenodd;stroke:black;stroke-width:0.39051226px;stroke-linecap:butt;stroke-linejoin:miter;stroke-opacity:1" />
      <path
         id="path1880"
         d="M 313.07446,364.11611 C 315.93479,365.54627 327.29471,365.17496 333.15795,366.34761 C 334.61672,366.63936 336.13328,366.34761 337.62094,366.34761"
         style="fill:none;fill-rule:evenodd;stroke:black;stroke-width:0.39051226px;stroke-linecap:butt;stroke-linejoin:miter;stroke-opacity:1" />
      <path
         id="path1882"
         d="M 403.45015,290.47665 C 404.37341,290.66131 414.70997,291.5924 422.41789,291.5924 C 423.24952,291.5924 423.90556,292.33624 424.64939,292.70815"
         style="fill:none;fill-rule:evenodd;stroke:black;stroke-width:0.39051226px;stroke-linecap:butt;stroke-linejoin:miter;stroke-opacity:1" />
      <path
         id="path1888"
         d="M 435.58373,297.17115 L 435.58373,340.68537"
         style="fill:none;fill-rule:evenodd;stroke:black;stroke-width:0.39051226px;stroke-linecap:butt;stroke-linejoin:miter;stroke-opacity:1" />
      <text
         id="text1890"
         y="320.21304"
         x="448.09308"
         style="font-size:15.92268944px;font-style:normal;font-weight:normal;fill:black;fill-opacity:1;stroke:none;stroke-width:1px;stroke-linecap:butt;stroke-linejoin:miter;stroke-opacity:1;font-family:Bitstream Vera Sans"
         xml:space="preserve"><tspan
           y="320.21304"
           x="448.09308"
           id="tspan1892"
           sodipodi:role="line">Pressure (difference)</tspan><tspan
           id="tspan1896"
           y="340.11641"
           x="448.09308"
           sodipodi:role="line" /></text>
      <path
         transform="matrix(0.390512,0,0,0.390512,119.0382,155.732)"
         d="M 351.42857 508.07648 A 120 115.71429 0 1 1  111.42857,508.07648 A 120 115.71429 0 1 1  351.42857 508.07648 z"
         sodipodi:ry="115.71429"
         sodipodi:rx="120"
         sodipodi:cy="508.07648"
         sodipodi:cx="231.42857"
         id="path1872"
         style="fill:red;fill-rule:evenodd;stroke:black;stroke-width:1px;stroke-linecap:butt;stroke-linejoin:miter;stroke-opacity:1"
         sodipodi:type="arc" />
    </g>
    <g
       id="g1964"
       transform="translate(-54.28571,-354.2857)">
      <path
         id="path1900"
         d="M 408.5625,618.0625 C 351.78536,618.0625 305.71876,660.32929 305.71875,712.375 C 305.71875,764.42071 351.78536,806.65626 408.5625,806.65625 C 465.33964,806.65625 511.43749,764.42071 511.4375,712.375 C 511.4375,660.32929 465.33964,618.06249 408.5625,618.0625 z M 412.84375,686.65625 C 430.98089,686.65625 445.71875,700.09625 445.71875,716.65625 C 445.71875,733.21625 430.98089,746.65625 412.84375,746.65625 C 394.70661,746.65625 380,733.21625 380,716.65625 C 380,700.09625 394.70661,686.65625 412.84375,686.65625 z "
         style="fill:#d40000;fill-opacity:1;fill-rule:evenodd;stroke:black;stroke-width:1px;stroke-linecap:butt;stroke-linejoin:miter;stroke-opacity:1" />
      <path
         id="path1911"
         d="M 127.35619,652.98188 C 41.187075,693.40723 71.480427,752.76431 194.96371,785.48079 C 260.63351,802.87977 339.48016,809.2548 411.89701,805.33146 C 371.41268,801.76816 331.41126,795.19091 294.90389,785.5184 C 167.01058,751.6335 130.43715,692.59055 213.2921,653.72001 C 258.76494,632.38689 330.787,621.5441 407.67405,621.70333 C 303.73212,611.58377 191.94844,622.67909 127.35619,652.98188 z "
         style="fill:#500;fill-opacity:1" />
      <text
         id="text1919"
         y="863.79077"
         x="393.03885"
         style="font-size:53.81583023px;font-style:normal;font-weight:normal;fill:black;fill-opacity:1;stroke:none;stroke-width:1px;stroke-linecap:butt;stroke-linejoin:miter;stroke-opacity:1;font-family:Bitstream Vera Sans"
         xml:space="preserve"><tspan
           y="863.79077"
           x="393.03885"
           id="tspan1921"
           sodipodi:role="line">LV</tspan><tspan
           id="tspan1923"
           y="931.06056"
           x="393.03885"
           sodipodi:role="line" /></text>
      <text
         id="text1925"
         y="854.58844"
         x="185.57916"
         style="font-size:42.48840714px;font-style:normal;font-weight:normal;fill:black;fill-opacity:1;stroke:none;stroke-width:1px;stroke-linecap:butt;stroke-linejoin:miter;stroke-opacity:1;font-family:Bitstream Vera Sans"
         xml:space="preserve"><tspan
           y="854.58844"
           x="185.57916"
           id="tspan1927"
           sodipodi:role="line">RV</tspan></text>
    </g>
    <path
       style="fill:none;fill-rule:evenodd;stroke:black;stroke-width:1px;stroke-linecap:butt;stroke-linejoin:miter;stroke-opacity:1"
       d="M 894.28571,149.50504 C 894.28571,150.45742 894.28571,151.4098 894.28571,149.50504 z "
       id="path1929" />
    <g
       id="g1945"
       transform="matrix(0.764686,0,0,0.764686,-693.9662,412.9559)">
      <path
         id="path1931"
         d="M 942.85714,178.07647 C 942.85714,177.12409 942.85714,176.17171 942.85714,178.07647 z "
         style="fill:black;fill-rule:evenodd;stroke:black;stroke-width:1px;stroke-linecap:butt;stroke-linejoin:miter;stroke-opacity:1" />
      <path
         id="path1935"
         d="M 1040,192.36218 L 1040,698.07647 L 1737.1429,698.07647"
         style="fill:none;fill-rule:evenodd;stroke:black;stroke-width:1px;stroke-linecap:butt;stroke-linejoin:miter;stroke-opacity:1" />
      <path
         id="path1939"
         d="M 1091.4286,598.07647 C 1091.5609,598.60589 1126.0279,598.07647 1137.1429,598.07647 C 1158.3917,598.07647 1166.6543,591.4129 1185.7143,586.6479 C 1198.5158,583.44751 1210.6616,569.71573 1214.2857,555.21933 C 1217.6381,541.80993 1227.9263,530.79531 1234.2857,518.07647 C 1239.6456,507.35677 1237.1429,502.04856 1237.1429,483.79075 C 1237.1429,469.50004 1254.9468,451.48071 1262.8571,440.93361 C 1271.8507,428.94219 1276.5389,412.21507 1282.8571,403.79075 C 1293.0424,390.21045 1289.5639,383.79075 1311.4286,383.79075 C 1329.1004,383.79075 1336.0148,394.66762 1342.8571,403.79075 C 1353.2368,417.6303 1356.8058,428.15667 1360,440.93361 C 1363.2454,453.91516 1371.4286,453.07374 1371.4286,472.36218 C 1371.4286,489.20648 1398.4699,458.27945 1400,455.21933 C 1405.7366,443.74615 1417.3434,443.59017 1425.7143,435.21933 C 1427.8792,433.05442 1447.3951,479.08539 1448.5714,483.79075 C 1451.7046,496.32335 1462.893,509.64844 1465.7143,520.93361 C 1469.4169,535.74395 1476.0398,545.09271 1480,560.93361 C 1483.1384,573.48709 1494.0768,577.86755 1502.8571,586.6479 C 1508.606,592.39676 1532.2087,589.50504 1542.8571,589.50504 C 1557.1429,589.50504 1571.4286,589.50504 1585.7143,589.50504 C 1601.7716,589.50504 1614.5142,587.30505 1628.5714,583.79075 C 1636.7375,581.74923 1640.1366,579.16467 1642.8571,578.07647"
         style="fill:none;fill-rule:evenodd;stroke:black;stroke-width:1px;stroke-linecap:butt;stroke-linejoin:miter;stroke-opacity:1" />
      <text
         id="text1941"
         y="681.18475"
         x="1114.0774"
         style="font-size:38.65447617px;font-style:normal;font-weight:normal;fill:black;fill-opacity:1;stroke:none;stroke-width:1px;stroke-linecap:butt;stroke-linejoin:miter;stroke-opacity:1;font-family:Bitstream Vera Sans"
         xml:space="preserve"><tspan
           y="681.18475"
           x="1114.0774"
           id="tspan1943"
           sodipodi:role="line">Aortic pressure over time</tspan></text>
    </g>
  </g>
</svg>
